HIERARCHY
ROOT Hips
{
    OFFSET 0.000000 0.000000 0.000000
    CHANNELS 6 Xposition Yposition Zposition Zrotation Xrotation Yrotation
        JOINT Chest
        {
            OFFSET -0.000000 31.471069 -0.000000
            CHANNELS 3 Zrotation Xrotation Yrotation
            JOINT Neck
            {
                OFFSET -0.000000 23.202770 0.000000
                CHANNELS 3 Zrotation Xrotation Yrotation
                JOINT Head
                {
                    OFFSET -0.000000 11.000000 0.000000
                    CHANNELS 3 Zrotation Xrotation Yrotation
                    End Site
                    {
                        OFFSET -0.000000 17.000000 0.000000
                    }
                }
            }
            JOINT LeftCollar
            {
                OFFSET -0.000000 23.202770 0.000000
                CHANNELS 3 Zrotation Xrotation Yrotation
                JOINT LeftShoulder
                {
                    OFFSET 21.000000 -0.000000 0.000000
                    CHANNELS 3 Zrotation Xrotation Yrotation
                    JOINT LeftElbow
                    {
                        OFFSET 23.506504 0.000000 0.000000
                        CHANNELS 3 Zrotation Xrotation Yrotation
                        JOINT LeftWrist
                        {
                            OFFSET 26.183235 0.000000 0.000000
                            CHANNELS 3 Zrotation Xrotation Yrotation
                            End Site
                            {
                                OFFSET 0.000000 -15.000001 0.000000
                            }
                        }
                    }
                }
            }
            JOINT RightCollar
            {
                OFFSET -0.000000 23.202770 0.000000
                CHANNELS 3 Zrotation Xrotation Yrotation
                JOINT RightShoulder
                {
                    OFFSET -21.000000 0.000000 0.000000
                    CHANNELS 3 Zrotation Xrotation Yrotation
                    JOINT RightElbow
                    {
                        OFFSET -23.506504 0.000000 0.000000
                        CHANNELS 3 Zrotation Xrotation Yrotation
                        JOINT RightWrist
                        {
                            OFFSET -26.183235 0.000000 0.000000
                            CHANNELS 3 Zrotation Xrotation Yrotation
                            End Site
                            {
                                OFFSET -0.000000 -15.000001 0.000000
                            }
                        }
                    }
                }
            }
        }
    JOINT LeftHip
    {
        OFFSET 12.000000 0.000000 0.000000
        CHANNELS 3 Zrotation Xrotation Yrotation
        JOINT LeftKnee
        {
            OFFSET -0.000000 -41.026867 0.000000
            CHANNELS 3 Zrotation Xrotation Yrotation
            JOINT LeftAnkle
            {
                OFFSET -0.000000 -42.711906 0.000000
                CHANNELS 3 Zrotation Xrotation Yrotation
                End Site
                {
                    OFFSET -0.000000 -5.000000 17.000000
                }
            }
        }
    }
    JOINT RightHip
    {
        OFFSET -12.000000 0.000000 0.000000
        CHANNELS 3 Zrotation Xrotation Yrotation
        JOINT RightKnee
        {
            OFFSET -0.000000 -41.026867 0.000000
            CHANNELS 3 Zrotation Xrotation Yrotation
            JOINT RightAnkle
            {
                OFFSET -0.000000 -42.711906 0.000000
                CHANNELS 3 Zrotation Xrotation Yrotation
                End Site
                {
                    OFFSET -0.000000 -5.000000 17.000000
                }
            }
        }
    }
}
MOTION
Frames:    10
Frame Time:    0.010000
-3.875359    89.989716    -34.113113    15.522451    -3.699667    54.889038    -6.907503    22.384249    -6.074066    2.395903    14.883495    -11.397021    4.466933    22.579416    -11.974441    -20.558275    0.074544    -0.405374    -45.857483    6.969023    5.453364    -1.442783    0.342405    -23.449373    103.871399    -3.665892    -21.838112    22.374920    -2.962627    -14.971352    53.865425    50.403099    3.307662    -17.555185    -3.873569    24.522394    -104.650887    5.558903    -16.743126    -9.370391    12.850127    -3.310574    -5.872722    12.736995    -10.186973    6.731966    -10.089862    38.370518    3.798096    -21.456598    12.516545    8.192680    36.668503    -8.454899    0.261885    -5.555188    -15.904303    
-3.763382    89.907280    -34.291111    15.719871    -3.936018    54.664719    -7.212388    22.636309    -6.012502    2.303290    14.903993    -11.521201    4.758798    22.378431    -12.158891    -20.573313    0.035052    -0.146710    -46.276482    7.751325    4.046183    -1.765087    0.438194    -24.773729    103.074020    -3.954371    -22.523434    22.405863    -2.941909    -14.866186    53.896015    50.485085    3.332314    -17.682472    -3.887864    24.390831    -104.397118    5.400442    -16.995775    -9.342846    12.870250    -2.978626    -6.187917    13.201248    -10.241425    6.996011    -10.183484    38.471706    3.521246    -21.239069    12.250474    7.921816    35.649162    -8.010913    0.395073    -4.598183    -16.283014    
-3.655099    89.834900    -34.464550    15.884712    -4.193099    54.488934    -7.443678    22.867605    -5.914751    2.220982    14.957619    -11.702905    5.066457    22.154203    -12.400074    -20.603725    -0.009189    0.171435    -46.616203    8.607922    2.585598    -2.078565    0.534319    -26.318777    102.137344    -4.190309    -23.342972    22.409712    -2.942925    -14.746188    54.000362    50.531582    3.269802    -17.828558    -3.905171    24.233816    -104.168999    5.256744    -17.299849    -9.274565    12.879551    -2.668069    -6.482865    13.662444    -10.260379    7.263091    -10.257774    38.515781    3.166832    -21.011665    11.990270    7.632385    34.644203    -7.687915    0.558788    -3.464022    -16.621090    
-3.550567    89.773788    -34.633423    16.014048    -4.467295    54.356018    -7.596764    23.069326    -5.763625    2.159430    15.035709    -11.951291    5.381771    21.918926    -12.704797    -20.657419    -0.065471    0.527883    -46.874004    9.561141    1.115389    -2.370394    0.625556    -28.116480    101.097748    -4.377881    -24.235914    22.403511    -2.905882    -14.618299    54.127670    50.461678    3.152916    -17.886044    -3.877783    24.069057    -104.030632    5.129523    -17.613054    -9.169130    12.878839    -2.383883    -6.755378    14.110869    -10.240362    7.527360    -10.312304    38.505466    2.736470    -20.769106    11.761189    7.323299    33.631622    -7.503260    0.816669    -2.206131    -16.892231    
-3.449765    89.724899    -34.798176    16.105371    -4.754113    54.261433    -7.669393    23.233679    -5.548424    2.121704    15.131083    -12.272011    5.706336    21.679789    -13.078236    -20.739948    -0.118846    0.905075    -47.044331    10.618549    -0.334166    -2.634463    0.727453    -30.154976    100.005096    -4.542908    -25.133669    22.379503    -2.870752    -14.490851    54.301235    50.300522    2.977695    -17.962736    -3.874319    23.891590    -103.953445    5.046279    -17.953186    -9.031960    12.868544    -2.125300    -6.999975    14.538064    -10.194325    7.786937    -10.344137    38.451626    2.230047    -20.504168    11.575825    6.988762    32.587505    -7.454770    1.236974    -0.894670    -17.086262    
-3.352740    89.688835    -34.959385    16.154737    -5.048550    54.200268    -7.660989    23.353445    -5.267252    2.103482    15.237084    -12.663668    6.045564    21.439621    -13.521599    -20.852116    -0.180356    1.293762    -47.122971    11.820597    -1.740176    -2.844740    0.822572    -32.451683    98.931480    -4.692867    -25.943184    22.343653    -2.832651    -14.369667    54.510967    50.019878    2.733261    -18.007175    -3.845529    23.714737    -103.943604    4.999087    -18.304562    -8.868809    12.846756    -1.883240    -7.207762    14.938168    -10.148352    8.041631    -10.350653    38.369614    1.648749    -20.210522    11.433994    6.618050    31.489407    -7.514369    1.879189    0.399315    -17.219582    
-3.259592    89.666031    -35.117416    16.158604    -5.345783    54.168449    -7.573845    23.423391    -4.928996    2.101233    15.346734    -13.121773    6.399014    21.201321    -14.030268    -20.989592    -0.249565    1.687065    -47.106247    13.185669    -3.086645    -2.972617    0.931668    -34.976913    97.930588    -4.852448    -26.577557    22.286541    -2.853457    -14.260423    54.795929    49.669556    2.382684    -18.101282    -3.833714    23.538416    -103.971329    5.013124    -18.680113    -8.685379    12.811875    -1.648626    -7.369196    15.305515    -10.129780    8.290724    -10.330566    38.275860    0.994702    -19.881487    11.322971    6.197453    30.316931    -7.630671    2.776471    1.622790    -17.334906    
-3.170211    89.657196    -35.272293    16.118732    -5.641823    54.166428    -7.412632    23.445324    -4.555099    2.106650    15.452218    -13.632555    6.757382    20.970186    -14.591184    -21.144873    -0.331336    2.084841    -46.992561    14.719366    -4.367768    -3.027416    1.006694    -37.701832    97.119957    -5.055665    -27.019939    22.245956    -2.807847    -14.158444    55.038315    49.135746    2.011238    -18.010683    -3.763981    23.384577    -104.123337    5.056479    -18.952858    -8.488468    12.767364    -1.422792    -7.477442    15.632921    -10.155650    8.532697    -10.283940    38.184681    0.267289    -19.505955    11.219638    5.715236    29.051573    -7.740810    3.919559    2.757263    -17.490503    
-3.084145    89.663338    -35.423756    16.043514    -5.933775    54.199673    -7.186377    23.428877    -4.176924    2.114975    15.545370    -14.180347    7.103673    20.752357    -15.186136    -21.307156    -0.406392    2.484252    -46.781284    16.377460    -5.589750    -3.019751    1.072570    -40.564747    96.546844    -5.335478    -27.271072    22.209076    -2.763259    -14.058853    55.271145    48.524742    1.640610    -17.994547    -3.726582    23.231836    -104.262108    5.153266    -19.227354    -8.286389    12.722703    -1.221697    -7.530241    15.911051    -10.226396    8.764420    -10.211901    38.106926    -0.537656    -19.067942    11.097338    5.165735    27.677826    -7.784952    5.251503    3.828040    -17.742434    
-3.000807    89.685387    -35.571140    15.944285    -6.220360    54.274178    -6.906931    23.388130    -3.828370    2.118055    15.614655    -14.743656    7.417038    20.557943    -15.792363    -21.461763    -0.479326    2.887047    -46.482094    18.117481    -6.758937    -2.951622    1.110776    -43.538628    96.278984    -5.703733    -27.357626    22.177258    -2.726498    -13.950871    55.496723    47.850349    1.250623    -17.991495    -3.688012    23.080574    -104.406502    5.295940    -19.478479    -8.086724    12.689941    -1.066544    -7.529564    16.130957    -10.331146    8.979945    -10.119488    38.050442    -1.422758    -18.551487    10.936836    4.548740    26.187262    -7.714156    6.689670    4.898192    -18.133036    
